<?xml version="1.0" encoding="utf-8" standalone="no"?>
<!DOCTYPE svg PUBLIC "-//W3C//DTD SVG 1.1//EN"
  "http://www.w3.org/Graphics/SVG/1.1/DTD/svg11.dtd">
<svg xmlns:xlink="http://www.w3.org/1999/xlink" width="370.8pt" height="277.2pt" viewBox="0 0 370.8 277.2" xmlns="http://www.w3.org/2000/svg" version="1.1">
 <metadata>
  <rdf:RDF xmlns:dc="http://purl.org/dc/elements/1.1/" xmlns:cc="http://creativecommons.org/ns#" xmlns:rdf="http://www.w3.org/1999/02/22-rdf-syntax-ns#">
   <cc:Work>
    <dc:type rdf:resource="http://purl.org/dc/dcmitype/StillImage"/>
    <dc:date>2026-08-20T18:01:07.435794</dc:date>
    <dc:format>image/svg+xml</dc:format>
    <dc:creator>
     <cc:Agent>
      <dc:title>Matplotlib v3.11.1, https://matplotlib.org/</dc:title>
     </cc:Agent>
    </dc:creator>
   </cc:Work>
  </rdf:RDF>
 </metadata>
 <defs>
  <style type="text/css">*{stroke-linejoin: round; stroke-linecap: butt}</style>
 </defs>
 <g id="figure_1">
  <g id="patch_1">
   <path d="M 0 277.2 
L 370.8 277.2 
L 370.8 0 
L 0 0 
z
" style="fill: #ffffff"/>
  </g>
  <g id="axes_1">
   <g id="patch_2">
    <path d="M 144.3 230.196904 
L 357.84 230.196904 
L 357.84 26.64 
L 144.3 26.64 
z
" style="fill: #ffffff"/>
   </g>
   <g id="line2d_1">
    <path d="M 223.614857 230.196904 
L 223.614857 26.64 
" clip-path="url(#pb830d49f32)" style="fill: none; stroke: #000000; stroke-linecap: square"/>
   </g>
   <g id="matplotlib.axis_1">
    <g id="xtick_1">
     <g id="line2d_2">
      <defs>
       <path id="m466fdcf395" d="M 0 0 
L 0 4 
" style="stroke: #000000"/>
      </defs>
      <g>
       <use xlink:href="#m466fdcf395" x="162.603429" y="230.196904" style="stroke: #000000"/>
      </g>
     </g>
     <g id="text_1">
      <text style="font-size: 11.5px; font-family: 'Arial'; text-anchor: middle" x="162.603429" y="246.069219" transform="rotate(-0 162.603429 246.069219)">−0.5</text>
     </g>
    </g>
    <g id="xtick_2">
     <g id="line2d_3">
      <g>
       <use xlink:href="#m466fdcf395" x="223.614857" y="230.196904" style="stroke: #000000"/>
      </g>
     </g>
     <g id="text_2">
      <text style="font-size: 11.5px; font-family: 'Arial'; text-anchor: middle" x="223.614857" y="246.069219" transform="rotate(-0 223.614857 246.069219)">0.0</text>
     </g>
    </g>
    <g id="xtick_3">
     <g id="line2d_4">
      <g>
       <use xlink:href="#m466fdcf395" x="284.626286" y="230.196904" style="stroke: #000000"/>
      </g>
     </g>
     <g id="text_3">
      <text style="font-size: 11.5px; font-family: 'Arial'; text-anchor: middle" x="284.626286" y="246.069219" transform="rotate(-0 284.626286 246.069219)">0.5</text>
     </g>
    </g>
    <g id="xtick_4">
     <g id="line2d_5">
      <g>
       <use xlink:href="#m466fdcf395" x="345.637714" y="230.196904" style="stroke: #000000"/>
      </g>
     </g>
     <g id="text_4">
      <text style="font-size: 11.5px; font-family: 'Arial'; text-anchor: middle" x="345.637714" y="246.069219" transform="rotate(-0 345.637714 246.069219)">1.0</text>
     </g>
    </g>
    <g id="text_5">
     <text style="font-size: 12.5px; font-family: 'Arial'; text-anchor: middle" x="251.07" y="261.589727" transform="rotate(-0 251.07 261.589727)">Elastic Net coefficient</text>
    </g>
   </g>
   <g id="matplotlib.axis_2">
    <g id="ytick_1">
     <g id="line2d_6">
      <defs>
       <path id="md9ba83eddb" d="M 0 0 
L -4 0 
" style="stroke: #000000"/>
      </defs>
      <g>
       <use xlink:href="#md9ba83eddb" x="144.3" y="220.944318" style="stroke: #000000"/>
      </g>
     </g>
     <g id="text_6">
      <text style="font-size: 11.5px; font-family: 'Arial'; text-anchor: end" x="136.8" y="225.130475" transform="rotate(-0 136.8 225.130475)">log(R)</text>
     </g>
    </g>
    <g id="ytick_2">
     <g id="line2d_7">
      <g>
       <use xlink:href="#md9ba83eddb" x="144.3" y="194.508356" style="stroke: #000000"/>
      </g>
     </g>
     <g id="text_7">
      <text style="font-size: 11.5px; font-family: 'Arial'; text-anchor: end" x="136.8" y="198.694513" transform="rotate(-0 136.8 198.694513)">Structure: porous</text>
     </g>
    </g>
    <g id="ytick_3">
     <g id="line2d_8">
      <g>
       <use xlink:href="#md9ba83eddb" x="144.3" y="168.072395" style="stroke: #000000"/>
      </g>
     </g>
     <g id="text_8">
      <text style="font-size: 11.5px; font-family: 'Arial'; text-anchor: end" x="136.8" y="172.258552" transform="rotate(-0 136.8 172.258552)">Mechanism: streaming</text>
     </g>
    </g>
    <g id="ytick_4">
     <g id="line2d_9">
      <g>
       <use xlink:href="#md9ba83eddb" x="144.3" y="141.636433" style="stroke: #000000"/>
      </g>
     </g>
     <g id="text_9">
      <text style="font-size: 11.5px; font-family: 'Arial'; text-anchor: end" x="136.8" y="145.82259" transform="rotate(-0 136.8 145.82259)">Ion: anion</text>
     </g>
    </g>
    <g id="ytick_5">
     <g id="line2d_10">
      <g>
       <use xlink:href="#md9ba83eddb" x="144.3" y="115.200471" style="stroke: #000000"/>
      </g>
     </g>
     <g id="text_10">
      <text style="font-size: 11.5px; font-family: 'Arial'; text-anchor: end" x="136.8" y="119.386629" transform="rotate(-0 136.8 119.386629)">Mechanism: ion gradient</text>
     </g>
    </g>
    <g id="ytick_6">
     <g id="line2d_11">
      <g>
       <use xlink:href="#md9ba83eddb" x="144.3" y="88.76451" style="stroke: #000000"/>
      </g>
     </g>
     <g id="text_11">
      <text style="font-size: 11.5px; font-family: 'Arial'; text-anchor: end" x="136.8" y="92.950667" transform="rotate(-0 136.8 92.950667)">Ion: other cation</text>
     </g>
    </g>
    <g id="ytick_7">
     <g id="line2d_12">
      <g>
       <use xlink:href="#md9ba83eddb" x="144.3" y="62.328548" style="stroke: #000000"/>
      </g>
     </g>
     <g id="text_12">
      <text style="font-size: 11.5px; font-family: 'Arial'; text-anchor: end" x="136.8" y="66.514705" transform="rotate(-0 136.8 66.514705)">Inorganic electrolyte</text>
     </g>
    </g>
    <g id="ytick_8">
     <g id="line2d_13">
      <g>
       <use xlink:href="#md9ba83eddb" x="144.3" y="35.892587" style="stroke: #000000"/>
      </g>
     </g>
     <g id="text_13">
      <text style="font-size: 11.5px; font-family: 'Arial'; text-anchor: end" x="136.8" y="40.078744" transform="rotate(-0 136.8 40.078744)">Structure: film</text>
     </g>
    </g>
   </g>
   <g id="LineCollection_1">
    <path d="M 223.614857 220.944318 
L 169.993771 220.944318 
" clip-path="url(#pb830d49f32)" style="fill: none; stroke: #009e73; stroke-width: 1.8"/>
   </g>
   <g id="LineCollection_2">
    <path d="M 223.614857 194.508356 
L 187.062434 194.508356 
" clip-path="url(#pb830d49f32)" style="fill: none; stroke: #d55e00; stroke-width: 1.25"/>
   </g>
   <g id="LineCollection_3">
    <path d="M 223.614857 168.072395 
L 211.203861 168.072395 
" clip-path="url(#pb830d49f32)" style="fill: none; stroke: #d55e00; stroke-width: 1.25"/>
   </g>
   <g id="LineCollection_4">
    <path d="M 223.614857 141.636433 
L 214.574154 141.636433 
" clip-path="url(#pb830d49f32)" style="fill: none; stroke: #d55e00; stroke-width: 1.25"/>
   </g>
   <g id="LineCollection_5">
    <path d="M 223.614857 115.200471 
L 236.02828 115.200471 
" clip-path="url(#pb830d49f32)" style="fill: none; stroke: #8c8c8c; stroke-width: 1.25"/>
   </g>
   <g id="LineCollection_6">
    <path d="M 223.614857 88.76451 
L 241.093045 88.76451 
" clip-path="url(#pb830d49f32)" style="fill: none; stroke: #8c8c8c; stroke-width: 1.25"/>
   </g>
   <g id="LineCollection_7">
    <path d="M 223.614857 62.328548 
L 241.282288 62.328548 
" clip-path="url(#pb830d49f32)" style="fill: none; stroke: #8c8c8c; stroke-width: 1.25"/>
   </g>
   <g id="LineCollection_8">
    <path d="M 223.614857 35.892587 
L 268.710126 35.892587 
" clip-path="url(#pb830d49f32)" style="fill: none; stroke: #8c8c8c; stroke-width: 1.25"/>
   </g>
   <g id="patch_3">
    <path d="M 144.3 230.196904 
L 144.3 26.64 
" style="fill: none; stroke: #000000; stroke-linejoin: miter; stroke-linecap: square"/>
   </g>
   <g id="patch_4">
    <path d="M 357.84 230.196904 
L 357.84 26.64 
" style="fill: none; stroke: #000000; stroke-linejoin: miter; stroke-linecap: square"/>
   </g>
   <g id="patch_5">
    <path d="M 144.3 230.196904 
L 357.84 230.196904 
" style="fill: none; stroke: #000000; stroke-linejoin: miter; stroke-linecap: square"/>
   </g>
   <g id="patch_6">
    <path d="M 144.3 26.64 
L 357.84 26.64 
" style="fill: none; stroke: #000000; stroke-linejoin: miter; stroke-linecap: square"/>
   </g>
   <g id="line2d_14">
    <defs>
     <path id="m176e40fd01" d="M 0 2.6 
C 0.689528 2.6 1.350908 2.326048 1.838478 1.838478 
C 2.326048 1.350908 2.6 0.689528 2.6 0 
C 2.6 -0.689528 2.326048 -1.350908 1.838478 -1.838478 
C 1.350908 -2.326048 0.689528 -2.6 0 -2.6 
C -0.689528 -2.6 -1.350908 -2.326048 -1.838478 -1.838478 
C -2.326048 -1.350908 -2.6 -0.689528 -2.6 0 
C -2.6 0.689528 -2.326048 1.350908 -1.838478 1.838478 
C -1.350908 2.326048 -0.689528 2.6 0 2.6 
z
" style="stroke: #000000; stroke-width: 0.35"/>
    </defs>
    <g clip-path="url(#pb830d49f32)">
     <use xlink:href="#m176e40fd01" x="169.993771" y="220.944318" style="fill: #009e73; stroke: #000000; stroke-width: 0.35"/>
    </g>
   </g>
   <g id="line2d_15">
    <defs>
     <path id="mbbb28badc8" d="M 0 2.15 
C 0.570187 2.15 1.117097 1.923462 1.52028 1.52028 
C 1.923462 1.117097 2.15 0.570187 2.15 0 
C 2.15 -0.570187 1.923462 -1.117097 1.52028 -1.52028 
C 1.117097 -1.923462 0.570187 -2.15 0 -2.15 
C -0.570187 -2.15 -1.117097 -1.923462 -1.52028 -1.52028 
C -1.923462 -1.117097 -2.15 -0.570187 -2.15 0 
C -2.15 0.570187 -1.923462 1.117097 -1.52028 1.52028 
C -1.117097 1.923462 -0.570187 2.15 0 2.15 
z
" style="stroke: #000000; stroke-width: 0.35"/>
    </defs>
    <g clip-path="url(#pb830d49f32)">
     <use xlink:href="#mbbb28badc8" x="187.062434" y="194.508356" style="fill: #d55e00; stroke: #000000; stroke-width: 0.35"/>
    </g>
   </g>
   <g id="line2d_16">
    <g clip-path="url(#pb830d49f32)">
     <use xlink:href="#mbbb28badc8" x="211.203861" y="168.072395" style="fill: #d55e00; stroke: #000000; stroke-width: 0.35"/>
    </g>
   </g>
   <g id="line2d_17">
    <g clip-path="url(#pb830d49f32)">
     <use xlink:href="#mbbb28badc8" x="214.574154" y="141.636433" style="fill: #d55e00; stroke: #000000; stroke-width: 0.35"/>
    </g>
   </g>
   <g id="line2d_18">
    <defs>
     <path id="m54d845257a" d="M 0 2.15 
C 0.570187 2.15 1.117097 1.923462 1.52028 1.52028 
C 1.923462 1.117097 2.15 0.570187 2.15 0 
C 2.15 -0.570187 1.923462 -1.117097 1.52028 -1.52028 
C 1.117097 -1.923462 0.570187 -2.15 0 -2.15 
C -0.570187 -2.15 -1.117097 -1.923462 -1.52028 -1.52028 
C -1.923462 -1.117097 -2.15 -0.570187 -2.15 0 
C -2.15 0.570187 -1.923462 1.117097 -1.52028 1.52028 
C -1.117097 1.923462 -0.570187 2.15 0 2.15 
z
" style="stroke: #000000; stroke-width: 0.35"/>
    </defs>
    <g clip-path="url(#pb830d49f32)">
     <use xlink:href="#m54d845257a" x="236.02828" y="115.200471" style="fill: #8c8c8c; stroke: #000000; stroke-width: 0.35"/>
    </g>
   </g>
   <g id="line2d_19">
    <g clip-path="url(#pb830d49f32)">
     <use xlink:href="#m54d845257a" x="241.093045" y="88.76451" style="fill: #8c8c8c; stroke: #000000; stroke-width: 0.35"/>
    </g>
   </g>
   <g id="line2d_20">
    <g clip-path="url(#pb830d49f32)">
     <use xlink:href="#m54d845257a" x="241.282288" y="62.328548" style="fill: #8c8c8c; stroke: #000000; stroke-width: 0.35"/>
    </g>
   </g>
   <g id="line2d_21">
    <g clip-path="url(#pb830d49f32)">
     <use xlink:href="#m54d845257a" x="268.710126" y="35.892587" style="fill: #8c8c8c; stroke: #000000; stroke-width: 0.35"/>
    </g>
   </g>
   <g id="text_14">
    <text style="font-size: 10.5px; font-family: 'Arial'; text-anchor: middle" x="251.07" y="20.64" transform="rotate(-0 251.07 20.64)">Compact explicit descriptor model</text>
   </g>
  </g>
 </g>
 <defs>
  <clipPath id="pb830d49f32">
   <rect x="144.3" y="26.64" width="213.54" height="203.556904"/>
  </clipPath>
 </defs>
</svg>
